<svg height="511pt" viewBox="-31 0 511 511.9995" width="511pt" xmlns="http://www.w3.org/2000/svg" xmlns:xlink="http://www.w3.org/1999/xlink"><linearGradient id="a" gradientUnits="userSpaceOnUse" x1=".49985" x2="449.49985" y1="255.99985" y2="255.99985"><stop offset="0" stop-color="#80d8ff"/><stop offset="1" stop-color="#ea80fc"/></linearGradient><path d="m439.496094 120.675781-204.5-118c-6.1875-3.566406-13.804688-3.566406-19.992188 0l-204.5 118c-6.191406 3.574219-10.003906 10.175781-10.003906 17.324219v236c0 7.148438 3.8125 13.75 10.003906 17.324219l204.5 118c6.1875 3.566406 13.804688 3.566406 19.992188 0l204.5-118c6.191406-3.574219 10.003906-10.175781 10.003906-17.324219v-236c0-7.148438-3.8125-13.75-10.003906-17.324219zm-29.996094 241.773438-184.5 106.460937-184.5-106.460937v-212.898438l184.5-106.460937 184.5 106.460937zm-265.484375-142.703125-36.257813 36.253906 36.257813 36.253906c7.808594 7.8125 7.808594 20.472656 0 28.285156-7.8125 7.808594-20.476563 7.808594-28.285156 0l-50.398438-50.398437c-7.808593-7.808594-7.808593-20.472656 0-28.28125l50.398438-50.398437c7.808593-7.808594 20.472656-7.808594 28.285156 0 7.808594 7.8125 7.808594 20.472656 0 28.285156zm161.96875 72.507812 36.257813-36.253906-36.257813-36.253906c-7.808594-7.8125-7.808594-20.472656 0-28.285156 7.8125-7.808594 20.476563-7.808594 28.285156 0l50.398438 50.398437c7.808593 7.808594 7.808593 20.472656 0 28.28125l-50.398438 50.398437c-7.808593 7.808594-20.472656 7.808594-28.285156 0-7.808594-7.8125-7.808594-20.472656 0-28.285156zm-133.808594 24.675782 69.871094-139.746094c4.941406-9.878906 16.949219-13.886719 26.832031-8.945313 9.882813 4.941407 13.886719 16.953125 8.945313 26.832031l-69.871094 139.75c-4.921875 9.839844-16.914063 13.902344-26.835937 8.941407-9.878907-4.9375-13.882813-16.953125-8.941407-26.832031zm0 0" fill="url(#a)"/></svg>